<svg width="2400" height="1200" viewBox="0 0 2400 1200" fill="none" xmlns="http://www.w3.org/2000/svg">
<g clip-path="url(#clip0_306_510)">
<path d="M2400 0H0V1200H2400V0Z" fill="white"/>
<path d="M1260.05 1200.07L1822.7 875.22M1241.37 1200.07L1822.7 864.43M1222.7 1200.07L1822.7 853.65M1204 1200.07L1822.7 842.86M1185.32 1200.07L1822.7 832.07M1822.7 821.28L1166.76 1200M1148.08 1200L1822.7 810.51M1129.4 1200L1822.7 799.72M1110.7 1200L1822.7 788.94M1091.92 1200.07L1822.7 778.15M1073.24 1200.07L1822.7 767.37M1054.56 1200.07L1822.7 756.58M1036 1200L1822.7 745.8M1017.32 1200L1822.7 735M998.52 1200.07L1822.7 724.22M979.84 1200.07L1822.7 713.44M1822.7 702.65L961.16 1200.07M942.48 1200.07L1822.7 691.87M1822.7 681.08L939.12 1191.22M939.12 1180.44L1822.7 670.3M939.12 1169.65L1822.7 659.51M939.12 1158.87L1822.7 648.73M939.12 1148.08L1822.7 637.94M1822.7 627.16L939.12 1137.3M939.12 1126.51L1822.7 616.37M939.12 1115.73L1822.7 605.59M939.12 1104.94L1822.7 594.8M1822.7 584.02L939.12 1094.16M939.12 1083.37L1822.7 573.23M1822.7 562.45L939.12 1072.59M939.12 1061.8L1822.7 551.66M1822.7 540.88L939.12 1051M939.12 1040.21L1822.7 530.09M939.12 1029.45L1822.7 519.31M1822.7 508.52L939.12 1018.66M939.12 1007.88L1822.7 497.74M939.12 997.09L1822.7 487M939.12 986.31L1822.7 476.17M1822.7 465.38L939.12 975.52" stroke="url(#paint0_linear_306_510)" stroke-width="2" stroke-miterlimit="10"/>
<path d="M1822.7 1069.35L2399.59 736.26M1822.7 1058.56L2399.59 725.48M1822.7 1047.78L2399.59 714.69M1822.7 1037L2399.59 703.92M1822.7 1026.22L2399.59 693.13M1822.7 1015.43L2399.59 682.35M1822.7 1004.65L2399.59 671.56M1822.7 993.85L2399.59 660.77M1822.7 983.07L2399.59 650M1822.7 972.28L2399.59 639.2M1822.7 961.5L2399.59 628.41M1822.7 950.71L2399.59 617.63M1822.7 939.93L2399.59 606.84M2399.59 596.06L1822.7 929.14M1822.7 918.36L2399.59 585.27M1822.7 907.57L2399.59 574.49M1822.7 896.79L2399.59 563.7M2399.59 552.92L1822.7 886M1822.7 875.22L2399.59 542.13" stroke="url(#paint1_linear_306_510)" stroke-width="2" stroke-miterlimit="10"/>
<path d="M481.45 754.42L1365 244.28M481.45 743.63L1365 233.5M481.45 732.85L1365 222.71M1365 211.93L481.45 722.06M481.45 711.28L1365 201.14M1365 190.36L481.45 700.49M481.45 689.71L1365 179.57M481.45 678.92L1365 168.79M481.45 668.14L1365 158M481.45 657.35L1365 147.22M481.45 646.57L1365 136.43M481.45 635.78L1365 125.65M481.45 625L1365 114.86M481.45 614.21L1365 104.08M481.45 603.43L1365 93.2899M481.45 592.64L1365 82.5099M481.45 581.86L1365 71.7199M481.45 571.07L1365 60.9399M481.45 560.29L1365 50.1499" stroke="url(#paint2_linear_306_510)" stroke-width="2" stroke-miterlimit="10"/>
<path d="M2399.59 326.36L1822.7 659.51M1822.7 648.73L2399.59 315.58M2399.59 304.79L1822.7 637.94M2399.59 294L1822.7 627.16M2399.59 283.21L1822.7 616.37M2399.59 272.44L1822.7 605.59M1822.7 594.8L2399.59 261.65M2399.59 250.87L1822.7 584M1822.7 573.23L2399.59 240.08M1822.7 562.45L2399.59 229.3M1822.7 551.66L2399.59 218.51M1822.7 540.88L2399.59 207.73M1822.7 530.09L2399.59 196.94M2399.59 186.16L1822.7 519.31M1822.7 508.52L2399.59 175.37M2399.59 164.59L1822.7 497.74M2399.59 153.8L1822.7 487M1822.7 476.17L2399.59 143M1822.7 465.38L2399.59 132.23" stroke="url(#paint3_linear_306_510)" stroke-width="2" stroke-miterlimit="10"/>
<path d="M1365 513.91L2254.85 0.17M1365 503.12L2236.17 0.17M2217.68 0.07L1365 492.34M1365 481.55L2198.81 0.17M2180.32 0.07L1365 470.77M1365 459.98L2161.45 0.17M1365 449.2L2142.77 0.17M1365 438.41L2124.09 0.17M1365 427.63L2105.41 0.17M1365 416.84L2086.73 0.17M1365 406.06L2068.05 0.17M1365.05 395.27L2049.37 0.17M1365 384.49L2030.69 0.17M1365 373.7L2012 0.17M1365 362.92L1993.51 0.07M1365 352.13L1974.65 0.17M1365 341.35L1956 0.17M1365 330.56L1937.29 0.17M1365 319.78L1918.61 0.17M1365 309L1899.93 0.17M1881.55 0L1365 298.21M1365 287.42L1862.75 0.07M1365 276.64L1843.89 0.17M1365 265.85L1825.21 0.17M1365 255.07L1806.53 0.17M1365 244.28L1788.14 0M1365 233.5L1769.46 0M1365 222.71L1750.49 0.17M1365 211.93L1731.8 0.17M1365 201.14L1713.12 0.17M1365 190.36L1694.74 0M1365 179.57L1675.76 0.17M1365 168.79L1657.08 0.17M1365 158L1638.4 0.17M1365 147.22L1619.72 0.17M1601.23 0.07L1365 136.43M1365 125.65L1582.66 0M1365 114.86L1564 0M1545.3 0L1365 104.08" stroke="#437BE9" stroke-width="2" stroke-miterlimit="10"/>
<path d="M2325 1200L2399.64 1156.9M2306.39 1199.96L2399.64 1146.12M2287.7 1199.96L2399.64 1135.33M2399.64 1124.55L2280.42 1193.38M2280.42 1182.59L2399.64 1113.76M2280.42 1171.76L2399.59 1103M2280.37 1161L2399.59 1092.17M2280.37 1150.17L2399.59 1081.34M2280.37 1139.34L2399.59 1070.51M2280.37 1128.56L2399.59 1059.73M2280.37 1117.73L2399.59 1049M2280.37 1107L2399.59 1038.17M2280.37 1096.17L2399.59 1027.34M2280.37 1085.34L2399.59 1016.51M2280.37 1074.51L2400 1005.65M2280.37 1063.94L2399.59 995.11M2280.37 1053.11L2399.59 984.28M2399.59 973.5L2280.37 1042.33M2280.37 1031.54L2399.59 962.71M2280.37 1020.71L2399.59 952M2280.37 1010L2399.59 941.17M2280.37 999.22L2399.59 930.39M2280.37 988.39L2399.59 919.56M2280.37 977.56L2399.59 908.73M2280.37 966.73L2399.59 898M2280.37 956.05L2399.59 887.22M2280.37 945.22L2399.59 876.39M2280.37 934.39L2399.59 865.56M2280.37 923.56L2399.59 854.73M2280.37 913L2399.59 844.17M2280.37 902.17L2399.59 833.34M2399.59 822.56L2280.37 891.39M2280.37 880.6L2399.59 811.77M2280.37 869.77L2399.59 801M2280.37 859L2399.59 790.17M2399.59 779.38L2280.37 848.22M2280.37 837.43L2399.59 768.6M2280.37 826.6L2399.59 757.76M2280.37 815.76L2399.59 746.93" stroke="url(#paint4_linear_306_510)" stroke-width="2" stroke-miterlimit="10"/>
<path d="M2280.37 1200.07V0.0698242M2271.03 1200.07V0.0698242M2261.69 1200.07V0.0698242M2252.35 1200.07V0.0698242M2243.01 1200.07V0.0698242M2233.67 1200.07V0.0698242M2224.33 1200.07V0.0698242M2214.98 1200.07V0.0698242M2205.64 1200.07V0.0698242M2196.3 1200.07V0.0698242M2186.96 1200.07V0.0698242M2177.62 1200.07V0.0698242M2168.28 1200.07V0.0698242M2158.94 1200.07V0.0698242M2149.6 1200.07V0.0698242M2140.26 1200.07V0.0698242M2130.92 1200.07V0.0698242M2121.57 1200.07V0.0698242M2112.23 1200.07V0.0698242M2102.89 1200.07V0.0698242M2093.55 1200.07V0.0698242M2084.21 1200.07V0.0698242M2074.87 1200.07V0.0698242M2065.53 1200.07V0.0698242M2056.19 1200.07V0.0698242M2046.85 1200.07V0.0698242M2037.5 1200.07V0.0698242M2028.16 1200.07V0.0698242M2018.82 1200.07V0.0698242M2009.48 1200.07V0.0698242M2000.14 1200.07V0.0698242M1990.8 1200.07V0.0698242M1981.46 1200.07V0.0698242M1972.12 1200.07V0.0698242M1962.78 1200.07V0.0698242M1953.44 1200.07V0.0698242M1944.09 1200.07V0.0698242M1934.75 1200.07V0.0698242M1925.41 1200.07V0.0698242M1916.07 1200.07V0.0698242M1906.73 1200.07V0.0698242M1897.39 1200.07V0.0698242M1888.05 1200.07V0.0698242M1878.71 1200.07V0.0698242M1869.37 1200.07V0.0698242M1860.03 1200.07V0.0698242M1850.68 1200.07V0.0698242M1841.34 1200.07V0.0698242M1832 1200.07V0.0698242M1822.66 1200.07V0.0698242" stroke="url(#paint5_linear_306_510)" stroke-width="2" stroke-miterlimit="10"/>
<path d="M1365 1200.07V0.0698242M1355.66 1200.07V0.0698242M1346.32 1200.07V0.0698242M1336.98 1200.07V0.0698242M1327.64 1200.07V0.0698242M1318.3 1200.07V0.0698242M1308.96 1200.07V0.0698242M1299.62 1200.07V0.0698242M1290.28 1200.07V0.0698242M1280.94 1200.07V0.0698242M1271.6 1200.07V0.0698242M1262.26 1200.07V0.0698242M1252.92 1200.07V0.0698242M1243.58 1200.07V0.0698242M1234.24 1200.07V0.0698242M1224.9 1200.07V0.0698242M1215.56 1200.07V0.0698242M1206.22 1200.07V0.0698242M1196.88 1200.07V0.0698242M1187.54 1200.07V0.0698242M1178.2 1200.07V0.0698242M1168.86 1200.07V0.0698242M1159.52 1200.07V0.0698242M1150.18 1200.07V0.0698242M1140.84 1200.07V0.0698242M1131.5 1200.07V0.0698242M1122.16 1200.07V0.0698242M1112.82 1200.07V0.0698242M1103.48 1200.07V0.0698242M1094.14 1200.07V0.0698242M1084.8 1200.07V0.0698242M1075.46 1200.07V0.0698242M1066.12 1200.07V0.0698242M1056.78 1200.07V0.0698242M1047.44 1200.07V0.0698242M1038.1 1200.07V0.0698242M1028.76 1200.07V0.0698242M1019.42 1200.07V0.0698242M1010.08 1200.07V0.0698242M1000.74 1200.07V0.0698242M991.4 1200.07V0.0698242M982.06 1200.07V0.0698242M972.72 1200.07V0.0698242M963.38 1200.07V0.0698242M954.04 1200.07V0.0698242M944.7 1200.07V0.0698242M935.36 1200.07V0.0698242M926.02 1200.07V0.0698242M916.68 1200.07V0.0698242M907.34 1200.07V0.0698242" stroke="url(#paint6_linear_306_510)" stroke-width="2" stroke-miterlimit="10"/>
<path d="M886.42 1200.07L1140.87 1053.16M886.42 1200.07H867.74M886.42 1200.07H830.42H849.1H606.26H624.94H680.94M867.74 1200.07L1140.87 1042.38M867.74 1200.07H587.54M849.06 1200.07L1140.87 1031.59M830.38 1200.07L1140.87 1020.81M811.7 1200.07L1140.87 1010.07M811.7 1200.07H793.02M811.7 1200.07H568.86M793 1200.07L1140.85 999.24M774.34 1200.07L1140.87 988.45M774.34 1200.07H755.66M774.34 1200.07H793.02M774.34 1200.07H830.34H811.66H606.18H587.5H755.62H736.94H867.7H849.02H643.54H624.86H680.86H662.18H718.18H699.5M755.66 1200.07L1140.87 977.67M755.66 1200.07H662.26M737 1200.07L1140.89 966.88M718.3 1200.07L1140.87 956.07M718.3 1200.07H699.62M718.3 1200.07H736.98H456.78M699.62 1200.07L1140.87 945.31M699.62 1200.07H680.94M680.94 1200.07L1140.87 934.53M662.26 1200.07L1140.87 923.74M662.26 1200.07H643.58M643.58 1200.07L1140.87 913M643.58 1200.07H400.74M624.87 1200.11L1140.87 902.21M606.22 1200.11L1140.87 891.43M587.54 1200.07L1140.87 880.6M587.54 1200.07H568.86M568.87 1200.07L1140.87 869.82M550.18 1200.07L1140.87 859.07M550.18 1200.07H531.5M550.18 1200.07H344.7M550.18 1200.07H568.86M550.18 1200.07H288.66M531.5 1200.07L1140.87 848.25M531.5 1200.07H326.02M531.5 1200.07H400.74M531.5 1200.07H512.82M512.87 1200.07L1140.87 837.46M494.14 1200.07L1140.87 826.68M494.14 1200.07H512.82M494.14 1200.07H475.46M475.46 1200.07L1140.87 815.89M475.46 1200.07H456.78M475.46 1200.07H307.34M456.78 1200.07L1140.87 805.07M456.78 1200.07H438.1M438.1 1200.07L1140.87 794.32M438.1 1200.07H419.42M438.1 1200.07H568.86M419.42 1200.07L1140.87 783.54M419.42 1200.07H512.82M419.42 1200.07H269.97H288.66M419.42 1200.07H400.74M400.74 1200.07L1140.87 772.75M400.74 1200.07H382.06M382.06 1200.07L1140.87 762M382.06 1200.07H363.38M382.06 1200.07H288.66M363.38 1200.07L1140.87 751.18M363.38 1200.07H344.7M344.7 1200.07L1140.87 740.39M344.7 1200.07H326.02M326 1200.07L1140.85 729.61M307.34 1200.07L1140.87 718.82M307.34 1200.07H326.02M307.34 1200.07H288.66M1140.87 708.04L288.66 1200.04M269.97 1200.04L1140.87 697.22M257.29 1196.61L1140.87 686.47M257.29 1185.82L1140.87 675.68M257.29 1175L1140.87 664.9M257.29 1164.25L1140.87 654.11M257.29 1153.47L1140.87 643.33M326.02 1200.07H793.02" stroke="url(#paint7_linear_306_510)" stroke-width="2" stroke-miterlimit="10"/>
<path d="M2400 0H0V1200H2400V0Z" fill="url(#paint8_linear_306_510)"/>
<path d="M2400 0H0V1200H2400V0Z" fill="url(#paint9_linear_306_510)"/>
<path d="M2400 0H0V1200H2400V0Z" fill="url(#paint10_linear_306_510)"/>
</g>
<defs>
<linearGradient id="paint0_linear_306_510" x1="1823.2" y1="832.72" x2="938.62" y2="832.72" gradientUnits="userSpaceOnUse">
<stop stop-color="#437BE9"/>
<stop offset="0.08" stop-color="#4371E9" stop-opacity="0.98"/>
<stop offset="0.16" stop-color="#438FE9" stop-opacity="0.94"/>
<stop offset="0.23" stop-color="#4385E9" stop-opacity="0.86"/>
<stop offset="0.3" stop-color="#4371E9" stop-opacity="0.74"/>
<stop offset="0.37" stop-color="#4385E9" stop-opacity="0.6"/>
<stop offset="0.44" stop-color="#437BE9" stop-opacity="0.42"/>
<stop offset="0.51" stop-color="#435EE9" stop-opacity="0.21"/>
<stop offset="0.57" stop-color="#4385E9" stop-opacity="0"/>
</linearGradient>
<linearGradient id="paint1_linear_306_510" x1="2400.09" y1="805.74" x2="1822.2" y2="805.74" gradientUnits="userSpaceOnUse">
<stop stop-color="#438FE9" stop-opacity="0.3"/>
<stop offset="0.24" stop-color="#4385E9" stop-opacity="0.2"/>
<stop offset="1" stop-color="#4385E9"/>
</linearGradient>
<linearGradient id="paint2_linear_306_510" x1="1365.53" y1="402.29" x2="480.95" y2="402.29" gradientUnits="userSpaceOnUse">
<stop stop-color="#438FE9"/>
<stop offset="0.76" stop-color="#4371E9" stop-opacity="0"/>
<stop offset="1" stop-color="#4368E9" stop-opacity="0.3"/>
</linearGradient>
<linearGradient id="paint3_linear_306_510" x1="2400.09" y1="395.87" x2="1822.2" y2="395.87" gradientUnits="userSpaceOnUse">
<stop stop-color="#4371E9" stop-opacity="0.5"/>
<stop offset="0.69" stop-color="#4399E9" stop-opacity="0"/>
</linearGradient>
<linearGradient id="paint4_linear_306_510" x1="2400.5" y1="973.51" x2="2279.87" y2="973.51" gradientUnits="userSpaceOnUse">
<stop stop-color="#4385E9" stop-opacity="0"/>
<stop offset="0.19" stop-color="#4385E9" stop-opacity="0.09"/>
<stop offset="0.51" stop-color="#4399E9" stop-opacity="0.2"/>
<stop offset="0.79" stop-color="#43ADE9" stop-opacity="0.28"/>
<stop offset="1" stop-color="#4385E9" stop-opacity="0.3"/>
</linearGradient>
<linearGradient id="paint5_linear_306_510" x1="2051.51" y1="0.0698242" x2="2051.51" y2="1200.07" gradientUnits="userSpaceOnUse">
<stop stop-color="#437BE9"/>
<stop offset="0.76" stop-color="#4399E9" stop-opacity="0"/>
<stop offset="1" stop-color="#438FE9" stop-opacity="0.3"/>
</linearGradient>
<linearGradient id="paint6_linear_306_510" x1="1136.2" y1="0.0698242" x2="1136.2" y2="1200.07" gradientUnits="userSpaceOnUse">
<stop stop-color="#4385E9" stop-opacity="0.3"/>
<stop offset="0.24" stop-color="#437BE9" stop-opacity="0"/>
<stop offset="0.56" stop-color="#4399E9" stop-opacity="0.6"/>
<stop offset="0.64" stop-color="#4385E9" stop-opacity="0.51"/>
<stop offset="0.75" stop-color="#4399E9" stop-opacity="0.4"/>
<stop offset="0.86" stop-color="#438FE9" stop-opacity="0.32"/>
<stop offset="0.94" stop-color="#438FE9" stop-opacity="0.3"/>
</linearGradient>
<linearGradient id="paint7_linear_306_510" x1="1141.37" y1="921.7" x2="256.79" y2="921.7" gradientUnits="userSpaceOnUse">
<stop stop-color="#2E71E5" stop-opacity="0"/>
<stop offset="1" stop-color="#2E71E5"/>
</linearGradient>
<linearGradient id="paint8_linear_306_510" x1="1061.21" y1="1387.12" x2="1338.79" y2="-187.12" gradientUnits="userSpaceOnUse">
<stop offset="0.24" stop-color="white"/>
<stop offset="0.81" stop-color="white" stop-opacity="0"/>
</linearGradient>
<linearGradient id="paint9_linear_306_510" x1="2400" y1="600" x2="0" y2="600" gradientUnits="userSpaceOnUse">
<stop offset="0.04" stop-color="white" stop-opacity="0"/>
<stop offset="0.81" stop-color="white" stop-opacity="0.24"/>
<stop offset="1" stop-color="white"/>
</linearGradient>
<linearGradient id="paint10_linear_306_510" x1="1110.03" y1="-282.69" x2="1257.68" y2="1165.86" gradientUnits="userSpaceOnUse">
<stop offset="0.31" stop-color="white"/>
<stop offset="0.68" stop-color="white" stop-opacity="0"/>
</linearGradient>
<clipPath id="clip0_306_510">
<rect width="2400" height="1200" fill="white"/>
</clipPath>
</defs>
</svg>
