<svg width="25" height="25" viewBox="0 0 25 25" fill="none" xmlns="http://www.w3.org/2000/svg">
<path fill-rule="evenodd" clip-rule="evenodd" d="M23.7167 20.971C23.4815 21.5684 22.9388 22.4095 22.1692 23.002C21.7249 23.3442 21.1944 23.6713 20.4658 23.8872C19.689 24.1174 18.7323 24.1952 17.5415 24.1952H6.65375C5.46308 24.1952 4.50635 24.1174 3.72952 23.8872C3.00087 23.6713 2.47048 23.3442 2.02606 23.002C1.25654 22.4094 0.71375 21.5684 0.478558 20.971C0.00480768 19.7673 0 18.4016 0 17.5415V6.65365C0 5.79356 0.00480768 4.42788 0.478558 3.22423C0.71375 2.62683 1.25644 1.78567 2.02606 1.19317C2.47038 0.850962 3.00087 0.523846 3.72952 0.307981C4.50625 0.0777885 5.46298 0 6.65375 0H17.5416C18.7323 0 19.689 0.0777885 20.4659 0.307981C21.1945 0.523846 21.7249 0.851058 22.1693 1.19317C22.9388 1.78577 23.4816 2.62683 23.7168 3.22423C24.1906 4.42788 24.1954 5.79356 24.1954 6.65365V17.5415C24.1954 18.4015 24.1905 19.7672 23.7167 20.971Z" fill="#F452FF"/>
<path d="M13.8523 13.907C13.4892 13.5239 12.8515 13.2783 12.0987 13.2783C11.3458 13.2783 10.7081 13.5239 10.3451 13.907C10.1556 14.1069 10.0555 14.3118 10.0239 14.6037C9.96276 15.169 9.99709 15.6558 10.0633 16.4339C10.1264 17.1755 10.2462 18.1643 10.4026 19.1714C10.5138 19.8882 10.6042 20.275 10.6865 20.552C10.82 21.0009 11.3187 21.3935 12.0987 21.3935C12.8786 21.3935 13.3774 21.0008 13.5108 20.552C13.5931 20.275 13.6835 19.8882 13.7948 19.1714C13.9511 18.1643 14.0709 17.1755 14.134 16.4339C14.2003 15.6557 14.2346 15.1689 14.1734 14.6037C14.1419 14.3119 14.0417 14.1069 13.8523 13.907ZM10.1205 10.4961C10.1205 11.5897 11.007 12.4762 12.1005 12.4762C13.1942 12.4762 14.0807 11.5897 14.0807 10.4961C14.0807 9.40248 13.1942 8.51594 12.1005 8.51594C11.007 8.51594 10.1205 9.40248 10.1205 10.4961ZM12.076 2.68168C7.44497 2.69488 3.65026 6.4519 3.59295 11.0827C3.54641 14.8339 5.94103 18.0428 9.28478 19.2189C9.36593 19.2475 9.44834 19.1801 9.43555 19.095C9.3917 18.8037 9.35036 18.511 9.31237 18.2233C9.29891 18.1215 9.23411 18.0338 9.14016 17.9928C6.49728 16.8382 4.6518 14.1876 4.68141 11.1173C4.72026 7.08806 8.01045 3.80325 12.0397 3.77065C16.1588 3.73738 19.5205 7.07854 19.5205 11.1901C19.5205 14.2296 17.683 16.8477 15.0607 17.9931C14.9668 18.0341 14.9024 18.1221 14.889 18.2237C14.851 18.5114 14.8097 18.804 14.7659 19.095C14.753 19.1801 14.8355 19.2475 14.9166 19.219C18.2284 18.0541 20.6091 14.8952 20.6091 11.1902C20.6089 6.49027 16.7788 2.66825 12.076 2.68168ZM11.9223 6.58508C14.5476 6.48344 16.7156 8.5896 16.7156 11.1927C16.7156 12.5165 16.1548 13.7117 15.2583 14.5534C15.1823 14.6248 15.1414 14.7261 15.1473 14.8303C15.1652 15.1469 15.1586 15.4546 15.1376 15.8021C15.1319 15.8947 15.2357 15.9538 15.3124 15.9016C16.8156 14.8743 17.8044 13.1469 17.8044 11.1927C17.8044 7.97498 15.1242 5.37142 11.8791 5.49719C8.86334 5.61412 6.44382 8.10056 6.40516 11.1184C6.37978 13.1033 7.37459 14.8616 8.89718 15.9018C8.97362 15.954 9.07718 15.8948 9.07151 15.8023C9.05036 15.4546 9.04391 15.1469 9.0617 14.8303C9.06757 14.7262 9.0268 14.6249 8.95093 14.5536C8.02651 13.6858 7.45882 12.442 7.49497 11.0689C7.55862 8.65258 9.5068 6.67863 11.9223 6.58508Z" fill="white"/>
</svg>
