<svg width="461" height="1200" viewBox="0 0 461 1200" fill="none" xmlns="http://www.w3.org/2000/svg">
<path d="M459.37 1200.07V0.0698242M450.03 1200.07V0.0698242M440.69 1200.07V0.0698242M431.35 1200.07V0.0698242M422.01 1200.07V0.0698242M412.67 1200.07V0.0698242M403.33 1200.07V0.0698242M393.98 1200.07V0.0698242M384.64 1200.07V0.0698242M375.3 1200.07V0.0698242M365.96 1200.07V0.0698242M356.62 1200.07V0.0698242M347.28 1200.07V0.0698242M337.94 1200.07V0.0698242M328.6 1200.07V0.0698242M319.26 1200.07V0.0698242M309.92 1200.07V0.0698242M300.57 1200.07V0.0698242M291.23 1200.07V0.0698242M281.89 1200.07V0.0698242M272.55 1200.07V0.0698242M263.21 1200.07V0.0698242M253.87 1200.07V0.0698242M244.53 1200.07V0.0698242M235.19 1200.07V0.0698242M225.85 1200.07V0.0698242M216.5 1200.07V0.0698242M207.16 1200.07V0.0698242M197.82 1200.07V0.0698242M188.48 1200.07V0.0698242M179.14 1200.07V0.0698242M169.8 1200.07V0.0698242M160.46 1200.07V0.0698242M151.12 1200.07V0.0698242M141.78 1200.07V0.0698242M132.44 1200.07V0.0698242M123.09 1200.07V0.0698242M113.75 1200.07V0.0698242M104.41 1200.07V0.0698242M95.0701 1200.07V0.0698242M85.7301 1200.07V0.0698242M76.3901 1200.07V0.0698242M67.0502 1200.07V0.0698242M57.7101 1200.07V0.0698242M48.3701 1200.07V0.0698242M39.0302 1200.07V0.0698242M29.6802 1200.07V0.0698242M20.3401 1200.07V0.0698242M11.0001 1200.07V0.0698242M1.66016 1200.07V0.0698242" stroke="url(#paint0_linear_306_520)" stroke-width="2" stroke-miterlimit="10"/>
<defs>
<linearGradient id="paint0_linear_306_520" x1="230.51" y1="0.0698242" x2="230.51" y2="1200.07" gradientUnits="userSpaceOnUse">
<stop stop-color="#437BE9"/>
<stop offset="0.76" stop-color="#4399E9" stop-opacity="0"/>
<stop offset="1" stop-color="#438FE9" stop-opacity="0.3"/>
</linearGradient>
</defs>
</svg>
