<svg width="627" height="362" viewBox="0 0 627 362" fill="none" xmlns="http://www.w3.org/2000/svg">
<g clip-path="url(#clip0_312_187)">
<g clip-path="url(#clip1_312_187)">
<path d="M574.825 134.941L627 165.065V166.769L574.75 136.601L497.85 181H494.899L574.75 134.898L574.825 134.941ZM574.75 144.954L512.541 180.87L512.316 181H515.267L574.75 146.657L627 176.824V175.12L574.825 144.997L574.75 144.954ZM574.75 94.6768L425.232 181H428.184L574.75 96.3798L627 126.546V124.842L574.825 94.7188L574.75 94.6768ZM574.75 114.787L460.066 181H463.017L574.75 116.491L627 146.657V144.953L574.825 114.83L574.75 114.787ZM574.75 104.731L442.649 181H445.6L574.75 106.435L627 136.602V134.898L574.825 104.774L574.75 104.731ZM574.75 124.843L477.483 181H480.434L574.75 126.546L627 156.713V155.009L574.825 124.886L574.75 124.843Z" fill="url(#paint0_linear_312_187)"/>
<path d="M418 96.38V94.675L581.982 0H584.933L418 96.38ZM619.767 0H616.815L418 114.786V116.491L619.767 0.001V0ZM550.1 0H547.148L418 74.565V76.269L550.1 0ZM532.683 0H529.732L418 64.51V66.213L532.683 0ZM567.517 0H564.565L418 84.62V86.324L567.517 0ZM602.35 0H599.398L418 104.731V106.435L602.35 0Z" fill="url(#paint1_linear_312_187)"/>
<path d="M209 76.272V64.503L320.727 0H341.104L209 76.272ZM410.769 0H390.393L209 104.725V116.488L410.769 0ZM375.939 0H355.563L209 84.614V96.382L375.939 0Z" fill="url(#paint2_linear_312_187)"/>
<path d="M209.075 124.885L306.266 181H285.899L209 136.604V124.841L209.075 124.885ZM209 176.821L216.234 181H236.601L209 165.063V176.821ZM209 144.952V156.71L251.069 181H271.436L209.075 144.996L209 144.952Z" fill="url(#paint3_linear_312_187)"/>
<path d="M418 24.2868V36.0498L375.935 60.3348L418 84.6198V96.3818L355.564 60.3338L418 24.2868ZM320.735 60.3338L418 116.494V104.731L341.1 60.3348L418 15.9378V4.17578L320.735 60.3338ZM390.4 60.3338L418 76.2718V64.5088L410.766 60.3338L418 56.1568V44.3978L390.4 60.3338Z" fill="url(#paint4_linear_312_187)"/>
<path d="M114.459 180.869L0 114.786V116.49L111.733 181H114.684L114.459 180.869ZM166.935 181H163.983L0 86.3238V84.6198L166.709 180.869L166.935 181ZM149.517 181H146.566L0 96.3798V94.6748L149.292 180.869L149.517 181ZM132.101 181H129.15L0 106.435V104.73L131.876 180.869L132.101 181ZM184.351 181H181.399L0 76.2688V74.5638L184.126 180.87L184.351 181.001V181ZM201.767 181H198.816L0 66.2128V64.5088L201.542 180.869L201.767 181Z" fill="url(#paint5_linear_312_187)"/>
<path d="M209 136.601V134.897L184.35 120.666L209 106.435V104.73L181.4 120.666L209 136.601ZM163.983 120.666L209 94.6748V96.3798L166.934 120.666L209 144.952V146.657L163.983 120.666ZM146.566 120.666L209 84.6198V86.3238L149.517 120.666L209 155.009V156.713L146.566 120.666ZM209 114.786V116.491L201.767 120.666L209 124.841V126.546L198.816 120.666L209 114.786ZM129.15 120.666L209 74.5638V76.2688L132.1 120.666L209 165.064V166.768L129.15 120.666ZM111.733 120.666L209 64.5088V66.2128L114.684 120.666L209 175.12V176.824L111.733 120.666Z" fill="url(#paint6_linear_312_187)"/>
<path d="M0.075 56.147L97.98 0H95.015L0 54.489V56.189L0.075 56.147ZM0 4.176L7.232 0H10.183L0 5.88V4.176ZM0 24.287L42.066 0H45.016L0 25.991V24.287ZM0 36.047V34.343L59.482 0H62.433L0 36.047ZM0 46.102V44.397L76.899 0H79.849L0.076 46.058L0 46.102ZM0 14.232L24.649 0H27.599L0 15.935V14.231V14.232Z" fill="url(#paint7_linear_312_187)"/>
<path d="M306.268 362H303.316L209 307.546V305.842L306.043 361.869L306.268 362ZM219.184 362L209 356.119V357.823L216.233 362H219.184ZM288.626 361.869L209 315.897V317.601L285.9 362H288.851L288.626 361.869ZM271.21 361.869L209 325.952V327.656L268.483 362H271.435L271.21 361.869ZM236.376 361.869L209 346.063V347.768L233.65 362H236.601L236.376 361.869ZM253.793 361.869L209 336.008V337.712L251.067 362H254.018L253.793 361.869Z" fill="url(#paint8_linear_312_187)"/>
<path d="M233.649 181H236.601L418 285.731V287.435L233.874 181.13L233.649 181ZM216.458 181.13L418 297.491V295.787L219.184 181H216.233L216.458 181.13ZM268.708 181.13L418 267.325V265.621L271.434 181H268.483L268.708 181.13ZM251.291 181.13L418 277.381V275.676L254.017 181H251.066L251.291 181.13ZM286.124 181.13L418 257.269V255.565L288.851 181H285.899L286.124 181.13ZM303.541 181.13L418 247.215V245.51L306.267 181H303.316L303.541 181.13Z" fill="url(#paint9_linear_312_187)"/>
<path d="M209.075 225.441L418 346.065V347.768L209 227.102V225.397L209.075 225.441ZM209 215.342V217.046L418 337.713V336.009L209.075 215.386L209 215.342ZM209 235.453V237.158L418 357.824V356.121L209.075 235.496L209 235.453ZM209 205.287V206.991L418 327.658V325.954L209.075 205.33L209 205.287ZM209 195.231V196.935L418 317.602V315.898L209.075 195.275L209 195.231ZM209 185.175V186.88L418 307.546V305.842L209.075 185.219L209 185.175Z" fill="url(#paint10_linear_312_187)"/>
<path d="M418 325.952V337.715L470.25 307.546L564.57 362H584.936L470.25 295.788L418 325.952ZM470.25 315.899L550.101 362H529.735L470.25 327.657L418 357.826V346.063L470.25 315.899ZM470.25 275.676L619.766 362H599.4L470.25 287.435L418 317.604V305.841L470.25 275.676Z" fill="url(#paint11_linear_312_187)"/>
<path d="M627 257.271V245.507L515.265 181H494.899L627 257.271ZM460.064 181H480.43L627 265.618V277.381L460.064 181ZM425.234 181H445.6L627 285.729V297.493L425.234 181Z" fill="url(#paint12_linear_312_187)"/>
</g>
</g>
<defs>
<linearGradient id="paint0_linear_312_187" x1="266" y1="300" x2="1419.62" y2="-843.511" gradientUnits="userSpaceOnUse">
<stop stop-color="#6CC5FD"/>
<stop offset="0.24" stop-color="#983FE9" stop-opacity="0.97"/>
<stop offset="0.57" stop-color="#7434CE" stop-opacity="0.93"/>
<stop offset="0.84" stop-color="#5D2DBE" stop-opacity="0.8"/>
<stop offset="1" stop-color="#552AB8" stop-opacity="0.72"/>
</linearGradient>
<linearGradient id="paint1_linear_312_187" x1="266" y1="300" x2="1419.62" y2="-843.511" gradientUnits="userSpaceOnUse">
<stop stop-color="#6CC5FD"/>
<stop offset="0.24" stop-color="#983FE9" stop-opacity="0.97"/>
<stop offset="0.57" stop-color="#7434CE" stop-opacity="0.93"/>
<stop offset="0.84" stop-color="#5D2DBE" stop-opacity="0.8"/>
<stop offset="1" stop-color="#552AB8" stop-opacity="0.72"/>
</linearGradient>
<linearGradient id="paint2_linear_312_187" x1="266" y1="300" x2="1419.62" y2="-843.511" gradientUnits="userSpaceOnUse">
<stop stop-color="#6CC5FD"/>
<stop offset="0.24" stop-color="#983FE9" stop-opacity="0.97"/>
<stop offset="0.57" stop-color="#7434CE" stop-opacity="0.93"/>
<stop offset="0.84" stop-color="#5D2DBE" stop-opacity="0.8"/>
<stop offset="1" stop-color="#552AB8" stop-opacity="0.72"/>
</linearGradient>
<linearGradient id="paint3_linear_312_187" x1="266" y1="300" x2="1419.62" y2="-843.511" gradientUnits="userSpaceOnUse">
<stop stop-color="#6CC5FD"/>
<stop offset="0.24" stop-color="#983FE9" stop-opacity="0.97"/>
<stop offset="0.57" stop-color="#7434CE" stop-opacity="0.93"/>
<stop offset="0.84" stop-color="#5D2DBE" stop-opacity="0.8"/>
<stop offset="1" stop-color="#552AB8" stop-opacity="0.72"/>
</linearGradient>
<linearGradient id="paint4_linear_312_187" x1="266" y1="300" x2="1419.62" y2="-843.511" gradientUnits="userSpaceOnUse">
<stop stop-color="#6CC5FD"/>
<stop offset="0.24" stop-color="#983FE9" stop-opacity="0.97"/>
<stop offset="0.57" stop-color="#7434CE" stop-opacity="0.93"/>
<stop offset="0.84" stop-color="#5D2DBE" stop-opacity="0.8"/>
<stop offset="1" stop-color="#552AB8" stop-opacity="0.72"/>
</linearGradient>
<linearGradient id="paint5_linear_312_187" x1="266" y1="300" x2="1419.62" y2="-843.511" gradientUnits="userSpaceOnUse">
<stop stop-color="#6CC5FD"/>
<stop offset="0.24" stop-color="#983FE9" stop-opacity="0.97"/>
<stop offset="0.57" stop-color="#7434CE" stop-opacity="0.93"/>
<stop offset="0.84" stop-color="#5D2DBE" stop-opacity="0.8"/>
<stop offset="1" stop-color="#552AB8" stop-opacity="0.72"/>
</linearGradient>
<linearGradient id="paint6_linear_312_187" x1="266" y1="300" x2="1419.62" y2="-843.511" gradientUnits="userSpaceOnUse">
<stop stop-color="#6CC5FD"/>
<stop offset="0.24" stop-color="#983FE9" stop-opacity="0.97"/>
<stop offset="0.57" stop-color="#7434CE" stop-opacity="0.93"/>
<stop offset="0.84" stop-color="#5D2DBE" stop-opacity="0.8"/>
<stop offset="1" stop-color="#552AB8" stop-opacity="0.72"/>
</linearGradient>
<linearGradient id="paint7_linear_312_187" x1="266" y1="300" x2="1419.62" y2="-843.511" gradientUnits="userSpaceOnUse">
<stop stop-color="#6CC5FD"/>
<stop offset="0.24" stop-color="#983FE9" stop-opacity="0.97"/>
<stop offset="0.57" stop-color="#7434CE" stop-opacity="0.93"/>
<stop offset="0.84" stop-color="#5D2DBE" stop-opacity="0.8"/>
<stop offset="1" stop-color="#552AB8" stop-opacity="0.72"/>
</linearGradient>
<linearGradient id="paint8_linear_312_187" x1="266" y1="300" x2="1419.62" y2="-843.511" gradientUnits="userSpaceOnUse">
<stop stop-color="#6CC5FD"/>
<stop offset="0.24" stop-color="#983FE9" stop-opacity="0.97"/>
<stop offset="0.57" stop-color="#7434CE" stop-opacity="0.93"/>
<stop offset="0.84" stop-color="#5D2DBE" stop-opacity="0.8"/>
<stop offset="1" stop-color="#552AB8" stop-opacity="0.72"/>
</linearGradient>
<linearGradient id="paint9_linear_312_187" x1="266" y1="300" x2="1419.62" y2="-843.511" gradientUnits="userSpaceOnUse">
<stop stop-color="#6CC5FD"/>
<stop offset="0.24" stop-color="#983FE9" stop-opacity="0.97"/>
<stop offset="0.57" stop-color="#7434CE" stop-opacity="0.93"/>
<stop offset="0.84" stop-color="#5D2DBE" stop-opacity="0.8"/>
<stop offset="1" stop-color="#552AB8" stop-opacity="0.72"/>
</linearGradient>
<linearGradient id="paint10_linear_312_187" x1="266" y1="300" x2="1419.62" y2="-843.511" gradientUnits="userSpaceOnUse">
<stop stop-color="#6CC5FD"/>
<stop offset="0.24" stop-color="#983FE9" stop-opacity="0.97"/>
<stop offset="0.57" stop-color="#7434CE" stop-opacity="0.93"/>
<stop offset="0.84" stop-color="#5D2DBE" stop-opacity="0.8"/>
<stop offset="1" stop-color="#552AB8" stop-opacity="0.72"/>
</linearGradient>
<linearGradient id="paint11_linear_312_187" x1="266" y1="300" x2="1419.62" y2="-843.511" gradientUnits="userSpaceOnUse">
<stop stop-color="#6CC5FD"/>
<stop offset="0.24" stop-color="#983FE9" stop-opacity="0.97"/>
<stop offset="0.57" stop-color="#7434CE" stop-opacity="0.93"/>
<stop offset="0.84" stop-color="#5D2DBE" stop-opacity="0.8"/>
<stop offset="1" stop-color="#552AB8" stop-opacity="0.72"/>
</linearGradient>
<linearGradient id="paint12_linear_312_187" x1="266" y1="300" x2="1419.62" y2="-843.511" gradientUnits="userSpaceOnUse">
<stop stop-color="#6CC5FD"/>
<stop offset="0.24" stop-color="#983FE9" stop-opacity="0.97"/>
<stop offset="0.57" stop-color="#7434CE" stop-opacity="0.93"/>
<stop offset="0.84" stop-color="#5D2DBE" stop-opacity="0.8"/>
<stop offset="1" stop-color="#552AB8" stop-opacity="0.72"/>
</linearGradient>
<clipPath id="clip0_312_187">
<rect width="627" height="362" fill="white"/>
</clipPath>
<clipPath id="clip1_312_187">
<rect width="627" height="362" fill="white"/>
</clipPath>
</defs>
</svg>
