<svg width="25" height="25" viewBox="0 0 25 25" fill="none" xmlns="http://www.w3.org/2000/svg">
<path fill-rule="evenodd" clip-rule="evenodd" d="M10.9375 7.95459V11.7429V13.2571V17.0455H14.0625V13.2571V11.7429V7.95459H10.9375Z" fill="#FAB908"/>
<path d="M1.5625 13.2104C2.42544 13.2104 3.125 12.5109 3.125 11.6479C3.125 10.785 2.42544 10.0854 1.5625 10.0854C0.699555 10.0854 0 10.785 0 11.6479C0 12.5109 0.699555 13.2104 1.5625 13.2104Z" fill="#0066D9"/>
<path d="M1.5625 14.9146C2.42544 14.9146 3.125 14.215 3.125 13.3521C3.125 12.4891 2.42544 11.7896 1.5625 11.7896C0.699555 11.7896 0 12.4891 0 13.3521C0 14.215 0.699555 14.9146 1.5625 14.9146Z" fill="#0066D9"/>
<path d="M3.125 11.6479H0V13.3525H3.125V11.6479Z" fill="#0066D9"/>
<path d="M23.4375 14.9146C24.3004 14.9146 25 14.215 25 13.3521C25 12.4891 24.3004 11.7896 23.4375 11.7896C22.5746 11.7896 21.875 12.4891 21.875 13.3521C21.875 14.215 22.5746 14.9146 23.4375 14.9146Z" fill="#4285F4"/>
<path d="M23.4375 13.2104C24.3004 13.2104 25 12.5109 25 11.6479C25 10.785 24.3004 10.0854 23.4375 10.0854C22.5746 10.0854 21.875 10.785 21.875 11.6479C21.875 12.5109 22.5746 13.2104 23.4375 13.2104Z" fill="#4285F4"/>
<path d="M21.875 13.3521H25V11.6475H21.875V13.3521Z" fill="#4285F4"/>
<path d="M6.96045 18.3237C7.82339 18.3237 8.52295 17.6242 8.52295 16.7612C8.52295 15.8983 7.82339 15.1987 6.96045 15.1987C6.0975 15.1987 5.39795 15.8983 5.39795 16.7612C5.39795 17.6242 6.0975 18.3237 6.96045 18.3237Z" fill="#EA4335"/>
<path d="M6.96045 20.0283C7.82339 20.0283 8.52295 19.3288 8.52295 18.4658C8.52295 17.6029 7.82339 16.9033 6.96045 16.9033C6.0975 16.9033 5.39795 17.6029 5.39795 18.4658C5.39795 19.3288 6.0975 20.0283 6.96045 20.0283Z" fill="#EA4335"/>
<path d="M8.52295 16.7612H5.39795V18.4658H8.52295V16.7612Z" fill="#EA4335"/>
<path d="M6.96045 8.09668C7.82339 8.09668 8.52295 7.39712 8.52295 6.53418C8.52295 5.67123 7.82339 4.97168 6.96045 4.97168C6.0975 4.97168 5.39795 5.67123 5.39795 6.53418C5.39795 7.39712 6.0975 8.09668 6.96045 8.09668Z" fill="#EA4335"/>
<path d="M6.96045 13.6362C7.82339 13.6362 8.52295 12.9367 8.52295 12.0737C8.52295 11.2108 7.82339 10.5112 6.96045 10.5112C6.0975 10.5112 5.39795 11.2108 5.39795 12.0737C5.39795 12.9367 6.0975 13.6362 6.96045 13.6362Z" fill="#EA4335"/>
<path d="M8.52295 6.53418H5.39795V12.1095H8.52295V6.53418Z" fill="#EA4335"/>
<path d="M18.0396 9.80127C18.9025 9.80127 19.6021 9.10171 19.6021 8.23877C19.6021 7.37582 18.9025 6.67627 18.0396 6.67627C17.1766 6.67627 16.4771 7.37582 16.4771 8.23877C16.4771 9.10171 17.1766 9.80127 18.0396 9.80127Z" fill="#34A853"/>
<path d="M18.0396 8.09668C18.9025 8.09668 19.6021 7.39712 19.6021 6.53418C19.6021 5.67123 18.9025 4.97168 18.0396 4.97168C17.1766 4.97168 16.4771 5.67123 16.4771 6.53418C16.4771 7.39712 17.1766 8.09668 18.0396 8.09668Z" fill="#34A853"/>
<path d="M16.4771 8.23877H19.6021V6.53422H16.4771V8.23877Z" fill="#34A853"/>
<path d="M12.5 4.82959C13.3629 4.82959 14.0625 4.13003 14.0625 3.26709C14.0625 2.40414 13.3629 1.70459 12.5 1.70459C11.6371 1.70459 10.9375 2.40414 10.9375 3.26709C10.9375 4.13003 11.6371 4.82959 12.5 4.82959Z" fill="#FAB908"/>
<path d="M12.5 3.125C13.3629 3.125 14.0625 2.42544 14.0625 1.5625C14.0625 0.699555 13.3629 0 12.5 0C11.6371 0 10.9375 0.699555 10.9375 1.5625C10.9375 2.42544 11.6371 3.125 12.5 3.125Z" fill="#FAB908"/>
<path d="M10.9375 3.26709L14.0625 3.26709V1.56254L10.9375 1.56254V3.26709Z" fill="#FAB908"/>
<path d="M12.5 25C13.3629 25 14.0625 24.3004 14.0625 23.4375C14.0625 22.5746 13.3629 21.875 12.5 21.875C11.6371 21.875 10.9375 22.5746 10.9375 23.4375C10.9375 24.3004 11.6371 25 12.5 25Z" fill="#FAB908"/>
<path d="M12.5 23.2954C13.3629 23.2954 14.0625 22.5959 14.0625 21.7329C14.0625 20.87 13.3629 20.1704 12.5 20.1704C11.6371 20.1704 10.9375 20.87 10.9375 21.7329C10.9375 22.5959 11.6371 23.2954 12.5 23.2954Z" fill="#FAB908"/>
<path d="M10.9375 23.4375H14.0625V21.733H10.9375V23.4375Z" fill="#FAB908"/>
<path d="M18.0396 20.0283C18.9025 20.0283 19.6021 19.3288 19.6021 18.4658C19.6021 17.6029 18.9025 16.9033 18.0396 16.9033C17.1766 16.9033 16.4771 17.6029 16.4771 18.4658C16.4771 19.3288 17.1766 20.0283 18.0396 20.0283Z" fill="#34A853"/>
<path d="M18.0396 14.4888C18.9025 14.4888 19.6021 13.7892 19.6021 12.9263C19.6021 12.0633 18.9025 11.3638 18.0396 11.3638C17.1766 11.3638 16.4771 12.0633 16.4771 12.9263C16.4771 13.7892 17.1766 14.4888 18.0396 14.4888Z" fill="#34A853"/>
<path d="M16.4771 18.4658H19.6021V12.926H16.4771V18.4658Z" fill="#34A853"/>
<path d="M12.5 9.51709C13.3629 9.51709 14.0625 8.81753 14.0625 7.95459C14.0625 7.09164 13.3629 6.39209 12.5 6.39209C11.6371 6.39209 10.9375 7.09164 10.9375 7.95459C10.9375 8.81753 11.6371 9.51709 12.5 9.51709Z" fill="#FAB908"/>
<path d="M12.5 18.6079C13.3629 18.6079 14.0625 17.9084 14.0625 17.0454C14.0625 16.1825 13.3629 15.4829 12.5 15.4829C11.6371 15.4829 10.9375 16.1825 10.9375 17.0454C10.9375 17.9084 11.6371 18.6079 12.5 18.6079Z" fill="#FAB908"/>
</svg>
