<svg width="25" height="25" viewBox="0 0 25 25" fill="none" xmlns="http://www.w3.org/2000/svg">
<path fill-rule="evenodd" clip-rule="evenodd" d="M23.7167 20.971C23.4815 21.5684 22.9388 22.4095 22.1692 23.002C21.7249 23.3442 21.1944 23.6713 20.4658 23.8872C19.689 24.1174 18.7323 24.1952 17.5415 24.1952H6.65375C5.46308 24.1952 4.50635 24.1174 3.72952 23.8872C3.00087 23.6713 2.47048 23.3442 2.02606 23.002C1.25654 22.4094 0.71375 21.5684 0.478558 20.971C0.00480768 19.7673 0 18.4016 0 17.5415V6.65365C0 5.79356 0.00480768 4.42788 0.478558 3.22423C0.71375 2.62683 1.25644 1.78567 2.02606 1.19317C2.47038 0.850962 3.00087 0.523846 3.72952 0.307981C4.50625 0.0777885 5.46298 0 6.65375 0H17.5416C18.7323 0 19.689 0.0777885 20.4659 0.307981C21.1945 0.523846 21.7249 0.851058 22.1693 1.19317C22.9388 1.78577 23.4816 2.62683 23.7168 3.22423C24.1906 4.42788 24.1954 5.79356 24.1954 6.65365V17.5415C24.1954 18.4015 24.1905 19.7672 23.7167 20.971Z" fill="black"/>
<path fill-rule="evenodd" clip-rule="evenodd" d="M17.3238 10.9787C14.4227 9.25582 9.63745 9.09741 6.86801 9.93794C6.42319 10.0729 5.95289 9.82187 5.81812 9.37715C5.68335 8.93211 5.93419 8.46214 6.37923 8.32694C9.55835 7.36195 14.8433 7.54831 18.1831 9.53084C18.5831 9.76835 18.7143 10.285 18.4772 10.6843C18.2399 11.0843 17.7229 11.2162 17.3238 10.9787ZM17.2288 13.5305C17.0253 13.8608 16.5934 13.9644 16.2636 13.7616C13.845 12.2749 10.1569 11.8442 7.29543 12.7128C6.92433 12.8248 6.53249 12.6157 6.41975 12.2453C6.30798 11.8743 6.51723 11.4831 6.88768 11.3702C10.1564 10.3783 14.22 10.8587 16.998 12.5658C17.3278 12.769 17.4316 13.201 17.2288 13.5305ZM16.1276 15.9812C15.9658 16.2464 15.6205 16.3295 15.3562 16.1679C13.2428 14.8762 10.5827 14.5845 7.44986 15.3C7.14798 15.3692 6.84706 15.1801 6.77817 14.8782C6.70906 14.5764 6.89757 14.2755 7.2001 14.2066C10.6284 13.4229 13.5692 13.7602 15.9414 15.2097C16.2059 15.3713 16.2892 15.7168 16.1276 15.9812ZM12 3C7.02954 3 3 7.02944 3 11.9999C3 16.9709 7.02954 21 12 21C16.9707 21 21 16.9709 21 11.9999C21 7.02944 16.9707 3 12 3Z" fill="#1ED760"/>
</svg>
