<svg width="86" height="85" viewBox="0 0 86 85" fill="none" xmlns="http://www.w3.org/2000/svg">
<path d="M5.58977 38.6365C5.58977 37.9496 4.98777 37.3486 4.29977 37.3486C3.61177 37.3486 3.00977 37.9496 3.00977 38.6365V41.6416H5.58977V38.6365Z" fill="#2A60AD"/>
<path d="M3.00977 47.2218C3.00977 47.9087 3.61177 48.5097 4.29977 48.5097C4.98777 48.5097 5.58977 47.9087 5.58977 47.2218V44.2168H3.00977V47.2218Z" fill="#2A60AD"/>
<path d="M10.7499 36.9187C10.7499 36.2319 10.1479 35.6309 9.45992 35.6309C8.77192 35.6309 8.16992 36.2319 8.16992 36.9187V41.641H10.7499V36.9187Z" fill="#2A60AD"/>
<path d="M8.16992 48.939C8.16992 49.6259 8.77192 50.2269 9.45992 50.2269C10.1479 50.2269 10.7499 49.6259 10.7499 48.939V44.2168H8.16992V48.939Z" fill="#2A60AD"/>
<path d="M13.3301 60.1006C13.3301 60.7875 13.9321 61.3885 14.6201 61.3885C15.3081 61.3885 15.9101 60.7875 15.9101 60.1006V44.2168H13.3301V60.1006Z" fill="#2A60AD"/>
<path d="M15.9101 25.7576C15.9101 25.0707 15.3081 24.4697 14.6201 24.4697C13.9321 24.4697 13.3301 25.0707 13.3301 25.7576V41.6414H15.9101V25.7576Z" fill="#2A60AD"/>
<path d="M23.6504 71.2623C23.6504 71.9491 24.2524 72.5501 24.9404 72.5501C25.6284 72.5501 26.2304 71.9491 26.2304 71.2623V44.2168H23.6504V71.2623Z" fill="#2A60AD"/>
<path d="M26.2304 14.5955C26.2304 13.9086 25.6284 13.3076 24.9404 13.3076C24.2524 13.3076 23.6504 13.9086 23.6504 14.5955V41.641H26.2304V14.5955Z" fill="#2A60AD"/>
<path d="M18.4902 77.2724C18.4902 77.9592 19.0922 78.5602 19.7802 78.5602C20.4682 78.5602 21.0702 77.9592 21.0702 77.2724V44.2168H18.4902V77.2724Z" fill="#2A60AD"/>
<path d="M21.0702 8.58573C21.0702 7.89886 20.4682 7.29785 19.7802 7.29785C19.0922 7.29785 18.4902 7.89886 18.4902 8.58573V41.6413H21.0702V8.58573Z" fill="#2A60AD"/>
<path d="M28.8096 62.6764C28.8096 63.3633 29.4116 63.9643 30.0996 63.9643C30.7876 63.9643 31.3896 63.3633 31.3896 62.6764V44.2168H28.8096V62.6764Z" fill="#2A60AD"/>
<path d="M31.3896 23.1814C31.3896 22.4946 30.7876 21.8936 30.0996 21.8936C29.4116 21.8936 28.8096 22.4946 28.8096 23.1814V41.641H31.3896V23.1814Z" fill="#2A60AD"/>
<path d="M36.5497 30.0506C36.5497 29.3637 35.9477 28.7627 35.2597 28.7627C34.5717 28.7627 33.9697 29.3637 33.9697 30.0506V41.6415H36.5497V30.0506Z" fill="#2A60AD"/>
<path d="M33.9697 55.8077C33.9697 56.4946 34.5717 57.0956 35.2597 57.0956C35.9477 57.0956 36.5497 56.4946 36.5497 55.8077V44.2168H33.9697V55.8077Z" fill="#2A60AD"/>
<path d="M39.1299 51.5148C39.1299 52.2016 39.7319 52.8027 40.4199 52.8027C41.1079 52.8027 41.7099 52.2016 41.7099 51.5148V44.2168H39.1299V51.5148Z" fill="#2A60AD"/>
<path d="M41.7099 34.3435C41.7099 33.6567 41.1079 33.0557 40.4199 33.0557C39.7319 33.0557 39.1299 33.6567 39.1299 34.3435V41.6415H41.7099V34.3435Z" fill="#2A60AD"/>
<path d="M46.87 30.0506C46.87 29.3637 46.268 28.7627 45.58 28.7627C44.892 28.7627 44.29 29.3637 44.29 30.0506V41.6415H46.87V30.0506Z" fill="#2A60AD"/>
<path d="M44.29 55.8077C44.29 56.4946 44.892 57.0956 45.58 57.0956C46.268 57.0956 46.87 56.4946 46.87 55.8077V44.2168H44.29V55.8077Z" fill="#2A60AD"/>
<path d="M52.0302 36.9187C52.0302 36.2319 51.4282 35.6309 50.7402 35.6309C50.0522 35.6309 49.4502 36.2319 49.4502 36.9187V41.641H52.0302V36.9187Z" fill="#2A60AD"/>
<path d="M49.4502 48.939C49.4502 49.6259 50.0522 50.2269 50.7402 50.2269C51.4282 50.2269 52.0302 49.6259 52.0302 48.939V44.2168H49.4502V48.939Z" fill="#2A60AD"/>
<path d="M54.6104 47.2218C54.6104 47.9087 55.2124 48.5097 55.9004 48.5097C56.5884 48.5097 57.1904 47.9087 57.1904 47.2218V44.2168H54.6104V47.2218Z" fill="#2A60AD"/>
<path d="M57.1904 38.6365C57.1904 37.9496 56.5884 37.3486 55.9004 37.3486C55.2124 37.3486 54.6104 37.9496 54.6104 38.6365V41.6416H57.1904V38.6365Z" fill="#2A60AD"/>
<path d="M59.7695 48.939C59.7695 49.6259 60.3715 50.2269 61.0595 50.2269C61.7475 50.2269 62.3495 49.6259 62.3495 48.939V44.2168H59.7695V48.939Z" fill="#2A60AD"/>
<path d="M62.3495 36.9187C62.3495 36.2319 61.7475 35.6309 61.0595 35.6309C60.3715 35.6309 59.7695 36.2319 59.7695 36.9187V41.641H62.3495V36.9187Z" fill="#2A60AD"/>
<path d="M64.9297 47.2218C64.9297 47.9087 65.5317 48.5097 66.2197 48.5097C66.9077 48.5097 67.5097 47.9087 67.5097 47.2218V44.2168H64.9297V47.2218Z" fill="#2A60AD"/>
<path d="M67.5097 38.6365C67.5097 37.9496 66.9077 37.3486 66.2197 37.3486C65.5317 37.3486 64.9297 37.9496 64.9297 38.6365V41.6416H67.5097V38.6365Z" fill="#2A60AD"/>
<path d="M77.83 38.6365C77.83 37.9496 77.228 37.3486 76.54 37.3486C75.852 37.3486 75.25 37.9496 75.25 38.6365V41.6416H77.83V38.6365Z" fill="#2A60AD"/>
<path d="M75.25 47.2218C75.25 47.9087 75.852 48.5097 76.54 48.5097C77.228 48.5097 77.83 47.9087 77.83 47.2218V44.2168H75.25V47.2218Z" fill="#2A60AD"/>
<path d="M70.0898 48.0804C70.0898 48.7673 70.6918 49.3683 71.3798 49.3683C72.0678 49.3683 72.6698 48.7673 72.6698 48.0804V44.2168H70.0898V48.0804Z" fill="#2A60AD"/>
<path d="M72.6698 37.7781C72.6698 37.0912 72.0678 36.4902 71.3798 36.4902C70.6918 36.4902 70.0898 37.0912 70.0898 37.7781V41.6417H72.6698V37.7781Z" fill="#2A60AD"/>
<path d="M80.4102 47.2218C80.4102 47.9087 81.0122 48.5097 81.7002 48.5097C82.3882 48.5097 82.9902 47.9087 82.9902 47.2218V44.2168H80.4102V47.2218Z" fill="#2A60AD"/>
<path d="M82.9902 38.6365C82.9902 37.9496 82.3882 37.3486 81.7002 37.3486C81.0122 37.3486 80.4102 37.9496 80.4102 38.6365V41.6416H82.9902V38.6365Z" fill="#2A60AD"/>
</svg>
