<svg xmlns="http://www.w3.org/2000/svg" fill="none" viewBox="0 0 400 400" height="400" width="400"><g id="robot-reading-a-book--ai-ml-technology-robot-reading-a-book"><g id="book"><path id="vector" fill="#0762b3" d="M334.158 252.05a1 1 0 0 1 -0.636 -1.772c7.922 -6.534 17.904 -10.78 28.104 -11.96a0.998 0.998 0 1 1 0.23 1.986 52.516 52.516 0 0 0 -27.06 11.516 0.994 0.994 0 0 1 -0.636 0.228l-0.002 0.002Z" stroke-width="2"></path><path id="vector_2" fill="#0762b3" d="M336.836 241.678a1 1 0 0 1 -0.702 -1.712 18.696 18.696 0 0 1 14.946 -5.238 1 1 0 1 1 -0.21 1.99 16.668 16.668 0 0 0 -13.33 4.672 0.994 0.994 0 0 1 -0.702 0.288h-0.002Z" stroke-width="2"></path><g id="group"><path id="vector_3" fill="#0762b3" d="M390.998 242.16a1.004 1.004 0 0 0 -0.686 -0.91 431.578 431.578 0 0 0 -62.234 -15.072 79.332 79.332 0 0 1 2.92 2.52 429.84 429.84 0 0 1 54.752 13.204 137.004 137.004 0 0 0 -45.048 16.958l-111.108 -23.346a74.18 74.18 0 0 1 14.002 -6.514c-0.146 -0.36 -1.234 -1.366 -1.682 -1.528a74.868 74.868 0 0 0 -15.272 7.528c-23.508 1.37 -59.344 9.222 -76.112 25.604a1.004 1.004 0 0 0 -0.09 1.33c6.002 7.742 8.316 19.806 5.586 30.14a1 1 0 0 0 0.718 1.224 2067.308 2067.308 0 0 0 109.666 25.044c0.668 0.142 1.368 -0.686 1.166 -0.506 16.204 -14.456 35.008 -27.228 59.134 -40.168 1.448 -0.774 4.238 -1.682 4.944 -0.21 0.308 0.64 0.314 1.852 1.324 2.574 1.042 0.744 2.332 0.34 2.952 0.144l6.888 -2.156a1 1 0 0 0 0.698 -0.88c0.358 -4.81 4.852 -8.572 13.362 -11.182a201.584 201.584 0 0 1 30.35 -6.792 1 1 0 0 0 0.824 -0.73c0.876 -3.258 3.126 -11.51 2.948 -16.274l-0.002 -0.002Zm-213.494 5.03a172.936 172.936 0 0 1 49.384 -10.202c0.308 0.064 -1.27 -0.112 -10.534 2.708 -10.708 3.258 -21.78 6.626 -31.428 12.874 -1.112 0.72 -0.014 2.392 1.086 1.678 9.412 -6.094 20.348 -9.42 30.922 -12.64 14.05 -4.274 16.196 -3.308 24.248 -1.618a73.38 73.38 0 0 0 -37.452 16.71 1 1 0 0 0 1.296 1.524c11.996 -10.188 27.21 -16.162 42.854 -16.83l9.088 1.91c-13.584 2.18 -26.628 8.686 -36.524 18.356a1 1 0 0 0 1.398 1.43c11.036 -10.784 26.108 -17.512 41.368 -18.474l12.896 2.708c-13.698 1.9 -26.794 8.194 -36.72 17.798a1 1 0 0 0 1.392 1.436c11.188 -10.828 26.534 -17.314 42.116 -17.81l9.822 2.064c-15.094 2.212 -33.176 10.046 -43.576 19.242 -0.992 0.876 0.338 2.364 1.326 1.498 20.184 -17.852 48.528 -19.318 48.728 -19.378l31.834 6.688c-20.066 0.894 -40.844 7.694 -58.388 20.834 -4.038 3.024 -5.172 3.236 -9.536 2.386L153.3 260.696c7.332 -6.804 16.714 -10.784 24.206 -13.516l-0.002 0.01Zm88.558 69.042a2066.496 2066.496 0 0 1 -107.86 -24.624 38.3 38.3 0 0 0 0.94 -10.002c6.94 1.49 44.02 9.426 46.532 9.426 1.21 0 1.37 -1.764 0.178 -1.984 -33.448 -6.122 -43.598 -9.06 -46.836 -9.514 -0.528 -6.094 -2.428 -12.01 -5.512 -16.75l112.154 21.716a33.398 33.398 0 0 1 3.138 8.584c-22.356 -5.706 -57.108 -11.806 -70.41 -14.788a0.998 0.998 0 1 0 -0.438 1.95c4.484 1.006 11.644 2.408 19.932 4.034 48.306 9.466 50.194 10.87 51.322 10.97 0.606 3.924 0.56 7.964 -0.14 11.87 -3.352 -0.512 -12.852 -0.912 -37.938 -7.128a1 1 0 0 0 -0.482 1.942c15.366 3.808 27.814 6.152 38.01 7.15a33.276 33.276 0 0 1 -2.588 7.15l-0.002 -0.002Zm120.226 -58.954a203.512 203.512 0 0 0 -30 6.764c-8.998 2.76 -13.936 6.882 -14.696 12.262l-0.876 0.276c0.02 -3.282 0.852 -7.39 4.246 -10.184 3.432 -2.826 6.662 -4.548 10.162 -5.424a1 1 0 1 0 -0.484 -1.94c-3.8 0.95 -7.28 2.8 -10.95 5.82 -3.33 2.74 -5.084 7.116 -4.97 12.358l-0.686 0.218c-0.624 -2.87 -1.478 -6.234 -3.614 -8.776 -2.33 -2.772 -6.866 -4.396 -10.136 -2.19a1 1 0 0 0 1.118 1.658c2.274 -1.534 5.706 -0.298 7.486 1.818 1.876 2.236 2.624 5.296 3.228 8.092 -2.834 0.872 -1.768 0.424 -2.664 -1.442 -1.314 -2.736 -4.996 -2.132 -7.692 -0.684 -22.738 12.196 -40.784 24.25 -56.396 37.7 2.132 -5.81 2.746 -12.218 1.842 -18.376l0.04 -0.036c11.154 -10.84 31.73 -22.354 41.54 -23.244 1.306 -0.12 1.152 -2.096 -0.18 -1.992 -10.084 0.916 -30.048 11.91 -41.82 22.916a35.634 35.634 0 0 0 -2.926 -8.454c2.29 -0.364 4.148 -1.742 5.976 -3.112 19.644 -14.722 43.868 -21.528 66.472 -20.416a0.986 0.986 0 0 0 0.958 -0.04c14.492 -8.738 30.948 -14.764 47.664 -17.47 -0.092 1.4 -0.244 2.742 -0.444 4.068a364.168 364.168 0 0 0 -27.312 7.136c-1.096 0.332 -0.856 1.958 0.29 1.958 0.726 0 9.38 -3.124 26.658 -6.966 -0.47 2.464 -1.1 4.946 -1.836 7.704l0.002 -0.002Z" stroke-width="2"></path><path id="vector_4" fill="#0762b3" d="M299.508 257.498a1.002 1.002 0 0 0 -1.2 -0.75c-13.312 3.084 -25.998 9.084 -36.684 17.35 -1.05 0.812 0.188 2.382 1.224 1.582 10.46 -8.09 22.878 -13.964 35.912 -16.984a1 1 0 0 0 0.75 -1.2l-0.002 0.002Z" stroke-width="2"></path><path id="vector_5" fill="#0762b3" d="M306.582 279.108c-10.066 2.63 -17.914 9.146 -28.152 17.116a1 1 0 0 0 1.228 1.58c9.474 -7.372 17.482 -14.158 27.432 -16.758a1 1 0 1 0 -0.506 -1.934l-0.002 -0.004Z" stroke-width="2"></path></g></g><path id="vector_6" fill="#0762b3" d="M330.682 227.106a11.412 11.412 0 0 0 -3.706 -1.926c-3.862 -3.654 -9.304 -6.12 -15.77 -7.134 -2.182 -0.342 -9.642 -1.47 -14.026 -1.64a9.04 9.04 0 0 0 -2.904 0.348c-10.86 -1.162 -29.242 -2.216 -39.68 -0.836 -2.46 -11.138 -4.468 -16.182 -6.198 -22.824 -1.23 -4.72 -3.06 -12.424 -6.946 -14.85a13.65 13.65 0 0 0 -2.934 -4.87c8.434 -2.442 16.492 -6.602 22.706 -12.806 7.6 -5.106 10.032 -11.804 12.082 -20.698 1.41 -6.124 2.458 -12.612 0.608 -18.578 -0.272 -0.876 -0.572 -1.678 -1.202 -1.946 -7.042 -34.97 -51.776 -49.792 -80.766 -31.058 -15.388 9.942 -24.38 30.682 -20.92 48.24 0.804 4.078 1.92 7.846 3.34 11.302 -1.568 3.052 -2.44 6.634 -1.68 9.87 0.87 3.698 3.172 6.936 6.25 9.028 -7.552 0.562 -14.9 1.872 -21.966 4.374 -7.416 -3.166 -11.836 4.244 -13.67 11.87 -7.48 6.774 -6.606 6.088 -6.872 6.132 -22.49 -15.254 -27.02 -18.434 -28.856 -19.422a13.224 13.224 0 0 0 -4.672 -4.178 114.626 114.626 0 0 0 3.884 -32.232c0.792 -3.438 1.422 -7.66 1.382 -8.766 -0.132 -3.462 -1.48 -6.478 -3.7 -8.276 -3.84 -3.108 -13.2 -3.066 -16.814 -2.01 -4.314 1.262 -7.616 4.592 -10.37 7.616a161.698 161.698 0 0 0 -12.054 14.918c-0.78 1.092 -1.598 2.384 -1.42 3.882 0.27 2.292 2.492 3.688 6.256 3.932 1.7 0.11 6.736 0.322 8.674 0.314 1.022 4.158 2.792 10.796 5.712 22.158a17.38 17.38 0 0 0 1.744 4.362c-2.274 4.772 -0.978 10.236 2.76 13.834a14.88 14.88 0 0 0 1.676 5.368c-9.864 -1.11 -14.826 -2.042 -18.54 1.552 -2.292 -0.78 -4.764 -0.808 -7.108 -0.208 -3.844 -7.888 -8.952 -16.942 -14.436 -23.792 -2.574 -3.218 -4.596 -4.512 -9.006 -3.922a18.99 18.99 0 0 0 -4.818 1.312c-2.04 -2.434 -5.058 -4.192 -9.18 -4.92 -2.948 -0.52 -7.27 -0.978 -10.778 1.046C7.08 167.26 8.82 188.436 10 199.29c0.228 2.108 0.512 4.73 1.844 6.898 1.102 1.794 3.2 3.316 5.442 3.316 2.06 0 3.46 -1.218 4.9 -2.652 3.304 -3.288 6.68 -6.646 9.608 -10.374 8.252 5.49 16.588 9.602 24.08 12.968 2.068 5.694 7.486 9.244 13.82 7.91 7.906 11.046 29.304 7.196 45.696 9.906 8.136 6.226 18.98 6.42 29.166 5.61 0.754 0.184 1.508 0.34 2.266 0.472 3.01 11.476 19.164 12.668 24.066 1.452 0.57 -1.302 0.908 -2.66 1.04 -4.022 18.3 -5.484 37.74 -14.806 52.55 -27.87a179.4 179.4 0 0 0 3.362 8.904c3.02 7.394 6.85 14.6 14.598 16.906 1.084 3.724 4.65 5.152 8.172 6.142 17.524 4.926 35.614 5.126 41.63 3.828 1.398 1.034 2.906 1.842 4.474 2.488 0.774 6.29 12.876 8.568 19.668 9.098 2.542 0.198 4.12 -1.378 2.702 -5.422l14.122 2.546c2.378 0.432 3.772 -0.232 4.386 -2.624 1.462 -5.678 -2.6 -14.312 -6.904 -17.658l-0.004 -0.006Zm-275.47 -20.16c-8.664 -3.956 -18.35 -8.938 -27.626 -15.89 -1.486 -1.114 -1.876 -1.564 -2.132 -3.436 -1.46 -10.78 8.006 -21.528 17.954 -21.528 2.62 0 3.84 1.128 5.58 3.306 5.372 6.71 10.296 15.468 14.084 23.184 -5.704 2.392 -8.94 7.974 -7.858 14.362l0 0.002Zm47.85 -36.344c3.354 0 2.92 0.232 30.536 18.994 -5.432 1.012 -10.612 2.394 -15.184 5.024 -8.36 -1.48 -16.808 -2.728 -25.256 -3.73 -2.128 -2.966 -2.936 -7.32 -1.72 -11.198 1.724 -5.518 6.994 -9.09 11.624 -9.09Zm-15.67 -1.208a16.784 16.784 0 0 1 -1.004 -2.858c-6.66 -25.898 -7.226 -26.962 -6.76 -29.882 1.124 -7.03 12.322 -11.692 23.254 -6.806 1.596 0.712 1.844 1.108 1.892 3.022A112.612 112.612 0 0 1 101.04 164.7c-5.21 -1.742 -10.616 0.548 -13.65 4.696l0.002 -0.002Zm-14.064 48.994c-6.176 -5.336 -5.658 -15.21 -2.036 -21.792 2 -3.632 3.994 -5.006 8.152 -5.006 3.644 0 20.468 1.916 36.49 4.63 -10.12 7.374 -12.096 19.51 -3.248 28.632 -14.04 -1.646 -31.576 0.256 -39.36 -6.466l0.002 0.002Zm47.54 9.86c-7.26 -3.342 -12.11 -10.318 -11.792 -16.962 0.26 -5.4 3.882 -10.92 9.46 -14.408 4.554 -2.85 9.902 -4.29 15.55 -5.338 -4.934 5.052 -8.948 10.644 -9.5 17.386 -0.812 9.85 6.456 18.306 15.05 22.23 -6.498 0.238 -13.008 -0.258 -18.766 -2.908Zm111.742 -34.86a19.048 19.048 0 0 0 0 -3.196c-0.362 -5.076 -0.994 -10.592 -3.53 -14.842 2.4 -0.314 4.798 -0.768 7.178 -1.366 6.28 5.402 5.244 16.194 -3.648 19.404Zm-26.596 -21.322c1.214 -2.026 2 -4.458 2.182 -7.186 4.972 1.58 10.31 1.826 15.168 2.048 9.672 0.448 20.786 0.56 30.118 -2.608 -12.24 8.298 -30.346 12.104 -47.468 7.746ZM183.43 150.79a51.64 51.64 0 0 0 -3.756 2.5c-2.232 -5.936 -1.776 -12.894 1.292 -18.446a25.108 25.108 0 0 0 2.464 15.948v-0.002Zm0.416 -19.054c0.32 0.042 0.676 0.218 1.022 0.398 5.8 3.016 10.506 8.17 13.172 14.174 -2.988 -0.73 -5.836 0.16 -8.654 1.392 -1.438 0.63 -2.848 1.328 -4.22 2.088 -2.872 -5.506 -3.4 -12.174 -1.318 -18.052Zm-3.16 23.29a49.42 49.42 0 0 1 9.5 -5.492c2.236 -0.978 4.762 -1.856 7.16 -1.334 5.916 1.294 9.492 11.208 8.756 17.334 -1.614 13.452 -19.64 17.88 -26.54 -7.326 -0.46 -1.676 -0.37 -2.082 1.124 -3.182Zm22.432 20.468c0.596 -0.504 1.152 -1.068 1.664 -1.684 2.378 0.636 4.818 1.132 7.3 1.478 -3.468 6.76 -5.228 11.778 -12.394 10.23a186.836 186.836 0 0 0 3.43 -10.024Zm68.834 -36.14a1 1 0 0 1 -0.406 1.354c-1.434 0.774 -2.316 1.116 -2.892 1.266a48.1 48.1 0 0 1 -7.854 13.962c-0.626 0.78 -1.888 0.248 -1.772 -0.744 0.56 -4.744 0.59 -9.214 0.888 -13.896 -2.078 3.76 -4.158 7.492 -4.158 7.492a1.012 1.012 0 0 1 -0.69 0.496c-0.184 0.036 -4.548 0.834 -8.248 0.044 -0.646 -0.138 -0.69 -0.496 -1.924 -3.218a70.568 70.568 0 0 1 -5.968 10.888c-0.554 0.83 -1.856 0.418 -1.832 -0.58l0.278 -11.162a53.764 53.764 0 0 1 -8.798 13.116 1 1 0 0 1 -1.734 -0.754c0.388 -4.852 0.79 -9.844 0.558 -14.77 -2.704 3.522 -6.096 7.302 -6.27 7.496a1 1 0 0 1 -0.886 0.322c-5.648 -0.814 -11.992 -2.12 -16.216 -5.63a1 1 0 0 1 1.278 -1.536c3.716 3.086 9.46 4.332 14.692 5.11 1.202 -1.358 5.16 -5.884 7.38 -9.114a1 1 0 0 1 1.818 0.468c0.486 4.93 0.24 9.9 -0.124 14.762a51.834 51.834 0 0 0 8.492 -15.15c0.376 -1.068 1.97 -0.774 1.942 0.36l-0.322 12.912a68.792 68.792 0 0 0 4.732 -9.576c0.328 -0.816 1.452 -0.822 1.824 -0.072 0.57 1.146 1.258 2.756 1.97 4.27 2.55 0.432 5.436 0.09 6.532 -0.072 0.892 -1.6 4.116 -7.392 6.208 -11.218 0.526 -0.962 1.998 -0.49 1.87 0.596 -0.608 5.156 -0.59 9.984 -0.97 15.086a46.096 46.096 0 0 0 5.606 -11.09 1 1 0 0 1 0.888 -0.67c0.162 -0.008 0.842 -0.118 2.75 -1.146a1 1 0 0 1 1.354 0.406l0.004 -0.008Zm-1.066 -18.964c-3.068 5.782 -9.654 9.116 -16.378 10.816 2.646 -26.158 -18.71 -48.646 -43.8 -48.218 26.014 -4.85 55.164 10.33 60.178 37.402Zm-97.898 15.748C169.482 118.362 179.12 95.376 199.8 86.328c4.286 -0.83 8.854 -1.36 11.384 -1.344 24.952 0.244 44.128 22.26 41.26 46.692 -10.822 2.218 -24.78 1.576 -37.702 -3.142 -3.954 -1.446 -6.018 -1.36 -8.462 2.122 -3.022 4.312 -5.124 9.748 -6.118 15.54 -2.79 -6.708 -7.956 -12.498 -14.374 -15.836 -2 -1.044 -3.604 -0.94 -5.328 1.516 -2.634 3.75 -4.03 8.294 -4.166 12.878a19.686 19.686 0 0 0 -0.638 0.888c-1.11 -2.944 -2 -6.11 -2.668 -9.504Zm1.644 21.1c-0.684 -2.904 0.27 -6.26 1.802 -9.03 0.244 2.232 0.792 4.426 1.648 6.496 -0.998 1.258 -0.866 2.518 -0.448 4.034a51.94 51.94 0 0 0 2.022 6.028c-2.458 -1.83 -4.32 -4.536 -5.024 -7.528Zm4.616 11.468c-4.464 7.522 -8.72 15.84 -12.47 24.282 0.104 -7.604 -1.344 -16.092 -7.494 -20.566 6.422 -2.088 13.1 -3.214 19.964 -3.716ZM145.6 206.136c-1.52 -9.662 -2.72 -20.712 2.316 -29.558 1.308 -2.296 3.012 -4.232 5.654 -4.232 2.336 0 4.74 1.514 6.34 3.338 5.074 5.774 5.24 14.162 4.614 22.534a217.472 217.472 0 0 0 -6.794 18.524c-3.81 0.626 -7.088 3 -9.12 6.17a406.306 406.306 0 0 1 -3.01 -16.776Zm12.99 34.448c-8.892 -0.336 -13.196 -10.214 -7.84 -17.258 1.8 -2.368 4.028 -3.778 6.31 -4.39l-0.292 0.982c-3.286 11.242 3.836 15.02 13.214 9.506 -0.024 5.882 -4.508 11.432 -11.392 11.16Zm0.1 -20.106c5.488 -18.806 16.276 -41.656 22.888 -51.738 5.36 9.42 13.124 11.27 18.89 8.48 -17.626 54.198 -47.476 62.758 -41.78 43.258Zm31.868 -15.08c3.304 -5.87 6.084 -12.014 8.4 -17.97 8.776 2.02 11.112 -3.93 15.224 -11.88 4.164 0.438 8.426 0.464 12.702 0.052 2.08 3.04 3.224 7.648 3.726 14.736 0.242 3.402 -0.05 5.186 -2.422 6.754 -8.814 5.83 -21.376 6.392 -37.63 8.308Zm51.592 21.076c-6.592 -2.442 -9.808 -8.924 -12.466 -15.432a174.706 174.706 0 0 1 -3.6 -9.6 94.04 94.04 0 0 0 2.094 -1.984c1.982 -1.182 3.208 -2.262 3.87 -3.778 6.218 -1.606 10.694 -7.072 10.152 -13.888 1.942 2.898 3.22 7.802 4.262 11.802 1.74 6.686 3.716 11.628 6.158 22.646 -2.202 0.45 -4.322 1.196 -6.192 2.524 -2.44 1.732 -4.196 4.74 -4.276 7.708l-0.002 0.002Zm8.992 6.448c-2.304 -0.648 -4.872 -1.502 -6.172 -3.448 -1.93 -2.886 -0.172 -7.1 2.614 -9.08 3.054 -2.166 7.076 -2.586 10.932 -2.83 10.18 -0.644 21.966 -0.14 32.518 0.868 -4.942 3.886 -6.624 12.508 -0.748 18.55 -7.1 0.964 -23.456 0.35 -39.142 -4.062l-0.002 0.002Zm45.68 6.114a18.234 18.234 0 0 1 -3.518 -2.054c-8.842 -6.666 -3.984 -18.584 3.534 -18.584 2.978 0 11.07 1.154 14.058 1.624 3.566 0.56 8.346 1.844 12.448 4.762a8.284 8.284 0 0 0 -2.198 0.49c-3.38 1.268 -8.43 6.438 -9.254 10.562 -4.48 -2.884 -9.66 -3.48 -12.384 -1.556 -1.406 0.992 -2.306 2.586 -2.686 4.756Zm20.55 9.194c-0.782 0.4 -19.354 -1.588 -18.688 -8.078 0.322 -3.13 1.676 -5.014 4.822 -5.014 5.626 0 12.148 4.73 13.982 11.326 0.238 0.85 0.186 1.61 -0.118 1.766h0.002Zm0.754 -5.592a17.652 17.652 0 0 0 -4.412 -5.462c0.25 -2.66 1.932 -4.946 3.814 -6.844 7.442 0.552 14.718 7.186 16.764 15.194 -0.424 -0.032 -5.468 -0.952 -16.168 -2.888h0.002Zm17.668 0.916c-2.52 -7.496 -9.196 -13.626 -16.332 -14.98 0.712 -0.57 1.508 -1.1 2.386 -1.43 2.3 -0.866 5.286 -0.26 7.602 1.542 3.684 2.862 7.104 10.266 6.344 14.868Z" stroke-width="2"></path></g></svg>